# xmcd
#
# Track frame offsets:
#	150
#	13215
#	26382
#	37674
#	51453
#	62020
#	72498
#	83080
#	95663
#	107405
#	119474
#	129245
#	140437
#	153700
#	164442
#	175435
#	183242
#	194811
#	206352
#	217455
#	228491
#	238171
#	249495
#	259043
#	268282
#	278423
#	289112
#	297911
#	308250
#
# Disc length: 4285 seconds
#
# Revision: 1
# Processed by: cddbd v1.5.2PL0 Copyright (c) Steve Scherf et al.
# Submitted via: audiograbber 1.83.01
#
DISCID=b510bb1d
DTITLE=Various Artist - The Drifters - Greatest Hits CD3
DYEAR=19
DGENRE=RR-Boo/
TTITLE0=King Ben E. - Spanish Harlem
TTITLE1=King Ben E. - Stand by me
TTITLE2=King Ben E. - First Taste of Love
TTITLE3=King Ben E. - Amor
TTITLE4=King Ben E. - Young Boy Blues
TTITLE5=King Ben E. - Here comes the Night
TTITLE6=King Ben E. - Ecstasy
TTITLE7=King Ben E. - Don't play that Song (You Lied)
TTITLE8=King Ben E. - Too Bad
TTITLE9=King Ben E. - Tell Daddy
TTITLE10=McPhatter Clyde - Treasure of Love
TTITLE11=McPhatter Clyde - Seven Days
TTITLE12=McPhatter Clyde - Without Love (There is Nothing)
TTITLE13=McPhatter Clyde - Just to hold my Hand
TTITLE14=McPhatter Clyde - Long lonely Nights
TTITLE15=McPhatter Clyde - Come what May
TTITLE16=McPhatter Clyde - A Lover's Question
TTITLE17=McPhatter Clyde - Lovey Dovey
TTITLE18=McPhatter Clyde - SInce you've Been gone
TTITLE19=McPhatter Clyde - You went back on your Word
TTITLE20=McPhatter Clyde - I Told myself a Lie
TTITLE21=McPhatter Clyde - Let's Try again
TTITLE22=McPhatter Clyde - Just give me a Ring
TTITLE23=McPhatter Clyde - Think me a Kiss
TTITLE24=McPhatter Clyde - Ta Ta
TTITLE25=McPhatter Clyde - I never Knew
TTITLE26=McPhatter Clyde - Lover Please
TTITLE27=McPhatter Clyde - Little Bitty Pretty One
TTITLE28=McPhatter Clyde - Love has Joined us Together
EXTD=
EXTT0=
EXTT1=
EXTT2=
EXTT3=
EXTT4=
EXTT5=
EXTT6=
EXTT7=
EXTT8=
EXTT9=
EXTT10=
EXTT11=
EXTT12=
EXTT13=
EXTT14=
EXTT15=
EXTT16=
EXTT17=
EXTT18=
EXTT19=
EXTT20=
EXTT21=
EXTT22=
EXTT23=
EXTT24=
EXTT25=
EXTT26=
EXTT27=
EXTT28=
PLAYORDER=
